<?xml version="1.0" ?><!DOCTYPE svg  PUBLIC '-//W3C//DTD SVG 1.1//EN'  'http://www.w3.org/Graphics/SVG/1.1/DTD/svg11.dtd'><svg id="Layer_1" style="enable-background:new 0 0 124 124;" version="1.1" viewBox="0 0 124 124" xml:space="preserve" xmlns="http://www.w3.org/2000/svg" xmlns:xlink="http://www.w3.org/1999/xlink"><style type="text/css">
	.st0{fill:#E73530;}
	.st1{fill:#0066B2;}
	.st2{fill:#F9A533;}
	.st3{fill:#336699;}
	.st4{fill:#003366;}
	.st5{fill:#203C73;}
	.st6{fill:#EE3A3F;}
	.st7{fill:#0067B2;}
	.st8{fill:#FAAC18;}
	.st9{fill:#6AB845;}
	.st10{fill:#231F20;}
	.st11{fill-rule:evenodd;clip-rule:evenodd;fill:#231F20;}
	.st12{fill-rule:evenodd;clip-rule:evenodd;fill:#008060;}
	.st13{fill:#007CC3;}
	.st14{fill:#009DDD;}
	.st15{fill:#FFFFFF;}
	.st16{fill-rule:evenodd;clip-rule:evenodd;fill:#FF9900;}
	.st17{fill-rule:evenodd;clip-rule:evenodd;}
	.st18{fill:#862165;}
	.st19{fill:#58595B;}
	.st20{fill-rule:evenodd;clip-rule:evenodd;fill:#9A9FB8;}
	.st21{fill:#00A551;}
	.st22{fill:#0071BB;}
	.st23{fill:#EC1C24;}
	.st24{fill:#EC1C2E;}
	.st25{fill:#0084C4;}
	.st26{fill:none;stroke:#FFFFFF;stroke-width:0.215;}
	.st27{fill-rule:evenodd;clip-rule:evenodd;fill:#FAA929;}
	.st28{fill-rule:evenodd;clip-rule:evenodd;fill:#045EA0;}
	.st29{fill:url(#SVGID_1_);}
	.st30{fill:url(#SVGID_2_);}
	.st31{fill:url(#SVGID_3_);}
	.st32{fill:url(#SVGID_4_);}
	.st33{fill:#273D49;}
	.st34{fill:#48606D;}
	.st35{fill:#8BB43F;}
	.st36{fill-rule:evenodd;clip-rule:evenodd;fill:#FBB231;}
	.st37{fill-rule:evenodd;clip-rule:evenodd;fill:#EC1C2E;}
	.st38{fill-rule:evenodd;clip-rule:evenodd;fill:#FFFFFF;}
	.st39{fill:none;stroke:#FFFFFF;stroke-width:0.216;stroke-miterlimit:2.6131;}
	.st40{fill-rule:evenodd;clip-rule:evenodd;fill:#121212;}
	.st41{fill:#004A97;}
	.st42{fill:#0078A9;}
	.st43{fill:url(#SVGID_5_);}
	.st44{fill:#001722;}
</style><g><g><polygon class="st36" points="82,91.9 83.6,91.9 85.1,91.8 86.6,91.6 88.1,91.3 89.5,91 90.9,90.6 92.3,90.1 93.7,89.6 95,89     96.3,88.3 97.6,87.6 98.8,86.8 100,86 101.1,85.1 102.2,84.1 103.2,83.1 104.2,82.1 105.2,81 106,79.9 106.9,78.7 107.7,77.5     108.4,76.2 109,74.9 109.6,73.6 110.2,72.3 110.7,70.9 111.1,69.4 111.4,68 111.7,66.5 111.8,65 112,63.5 112,61.9 112,60.4     111.8,58.9 111.7,57.4 111.4,55.9 111.1,54.5 110.7,53.1 110.2,51.7 109.6,50.3 109,49 108.4,47.7 107.7,46.5 106.9,45.3     106,44.1 105.2,43 104.2,41.9 103.2,40.8 102.2,39.8 101.1,38.9 100,38 98.8,37.2 97.6,36.4 96.3,35.7 95,35 93.7,34.4 92.3,33.9     90.9,33.4 89.5,33 88.1,32.7 86.6,32.4 85.1,32.2 83.6,32.1 82,32.1 80.5,32.1 79,32.2 77.5,32.4 76,32.7 74.5,33 73.1,33.4     71.7,33.9 70.4,34.4 69.1,35 67.8,35.7 66.5,36.4 65.3,37.2 64.1,38 63,38.9 61.9,39.8 60.9,40.8 59.9,41.9 59,43 58.1,44.1     57.2,45.3 56.5,46.5 55.8,47.7 55.1,49 54.5,50.3 54,51.7 53.5,53.1 53.1,54.5 52.8,55.9 52.5,57.4 52.3,58.9 52.2,60.4     52.1,61.9 52.2,63.5 52.3,65 52.5,66.5 52.8,68 53.1,69.4 53.5,70.9 54,72.3 54.5,73.6 55.1,74.9 55.8,76.2 56.5,77.5 57.2,78.7     58.1,79.9 59,81 59.9,82.1 60.9,83.1 61.9,84.1 63,85.1 64.1,86 65.3,86.8 66.5,87.6 67.8,88.3 69.1,89 70.4,89.6 71.7,90.1     73.1,90.6 74.5,91 76,91.3 77.5,91.6 79,91.8 80.5,91.9 82,91.9 82,91.9   "/><polygon class="st37" points="42,91.9 43.5,91.9 45,91.8 46.5,91.6 48,91.3 49.5,91 50.9,90.6 52.3,90.1 53.6,89.6 54.9,89     56.2,88.3 57.5,87.6 58.7,86.8 59.9,86 61,85.1 62.1,84.1 63.1,83.1 64.1,82.1 65,81 65.9,79.9 66.8,78.7 67.5,77.5 68.2,76.2     68.9,74.9 69.5,73.6 70,72.3 70.5,70.9 70.9,69.4 71.2,68 71.5,66.5 71.7,65 71.8,63.5 71.9,61.9 71.8,60.4 71.7,58.9 71.5,57.4     71.2,55.9 70.9,54.5 70.5,53.1 70,51.7 69.5,50.3 68.9,49 68.2,47.7 67.5,46.5 66.8,45.3 65.9,44.1 65,43 64.1,41.9 63.1,40.8     62.1,39.8 61,38.9 59.9,38 58.7,37.2 57.5,36.4 56.2,35.7 54.9,35 53.6,34.4 52.3,33.9 50.9,33.4 49.5,33 48,32.7 46.5,32.4     45,32.2 43.5,32.1 42,32.1 40.4,32.1 38.9,32.2 37.4,32.4 35.9,32.7 34.5,33 33.1,33.4 31.7,33.9 30.3,34.4 29,35 27.7,35.7     26.4,36.4 25.2,37.2 24,38 22.9,38.9 21.8,39.8 20.8,40.8 19.8,41.9 18.8,43 18,44.1 17.1,45.3 16.3,46.5 15.6,47.7 15,49     14.4,50.3 13.8,51.7 13.3,53.1 12.9,54.5 12.6,55.9 12.3,57.4 12.2,58.9 12,60.4 12,61.9 12,63.5 12.2,65 12.3,66.5 12.6,68     12.9,69.4 13.3,70.9 13.8,72.3 14.4,73.6 15,74.9 15.6,76.2 16.3,77.5 17.1,78.7 18,79.9 18.8,81 19.8,82.1 20.8,83.1 21.8,84.1     22.9,85.1 24,86 25.2,86.8 26.4,87.6 27.7,88.3 29,89 30.3,89.6 31.7,90.1 33.1,90.6 34.5,91 35.9,91.3 37.4,91.6 38.9,91.8     40.4,91.9 42,91.9 42,91.9   "/><polygon class="st36" points="58.5,43.6 74.4,43.6 74.4,41.9 59.9,41.9 58.5,43.6 58.5,43.6   "/><polygon class="st36" points="56.1,47.2 74.4,47.2 74.4,45.5 57.1,45.5 56.1,47.2 56.1,47.2   "/><polygon class="st36" points="54.3,50.8 74.4,50.8 74.4,49.1 55,49.1 54.3,50.8 54.3,50.8   "/><polygon class="st36" points="53.1,54.4 74.4,54.4 74.4,52.8 53.6,52.8 53.1,54.4 53.1,54.4   "/><polygon class="st36" points="53.8,71.8 74.4,71.8 74.4,70.2 53.3,70.2 53.8,71.8 53.8,71.8   "/><polygon class="st36" points="55.3,75.5 74.4,75.5 74.4,73.8 54.6,73.8 55.3,75.5 55.3,75.5   "/><polygon class="st36" points="57.5,79.1 74.4,79.1 74.4,77.4 56.5,77.4 57.5,79.1 57.5,79.1   "/><polygon class="st36" points="60.4,82.7 74.4,82.7 74.4,81 59,81 60.4,82.7 60.4,82.7   "/><polygon class="st36" points="52.4,58 74.4,58 74.4,56.4 52.7,56.4 52.4,58 52.4,58   "/><polygon class="st36" points="65.8,68.2 74.2,68.2 74.2,66.6 66.1,66.6 65.8,68.2 65.8,68.2   "/><polygon class="st36" points="66.5,64.6 74.2,64.6 74.2,63 66.8,63 66.5,64.6 66.5,64.6   "/><polygon class="st36" points="51.8,63 54,63 54,64.6 51.9,64.6 51.8,63 51.8,63   "/><polygon class="st38" points="47.8,61 47.6,61 47.5,61 47.4,61 47.2,61 47.1,60.9 47,60.9 46.8,60.9 46.7,60.9 46.6,60.9     46.4,60.9 46.2,60.8 46,60.8 45.8,60.8 45.6,60.8 45.3,60.9 45,60.9 44.8,60.9 44.6,60.9 44.5,61 44.3,61.1 44.2,61.1 44,61.2     43.9,61.3 43.8,61.4 43.8,61.5 43.7,61.6 43.7,61.8 43.7,61.9 43.7,62 43.8,62.1 43.9,62.3 44,62.4 44.2,62.6 44.4,62.7     44.7,62.9 45,63 45.3,63.1 45.7,63.2 46,63.3 46.3,63.4 46.6,63.6 46.9,63.8 47.1,64.1 47.4,64.4 47.5,64.8 47.6,65.2 47.7,65.8     47.6,66.4 47.6,66.9 47.4,67.3 47.3,67.7 47.1,68 46.8,68.3 46.6,68.6 46.3,68.8 46,69 45.7,69.1 45.3,69.3 45,69.4 44.6,69.4     44.3,69.5 44,69.5 43.6,69.6 43.3,69.6 42.9,69.6 42.5,69.6 42.1,69.6 41.8,69.5 41.5,69.5 41.2,69.5 41,69.5 40.7,69.5     40.5,69.4 40.3,69.4 40.1,69.4 40,69.3 39.8,69.3 39.6,69.2 39.5,69.2 39.3,69.1 39.7,66.9 39.8,66.9 40,66.9 40.1,67 40.3,67     40.4,67 40.6,67.1 40.9,67.1 41.1,67.2 41.4,67.2 41.6,67.3 41.9,67.3 42.2,67.3 42.5,67.3 42.8,67.3 43.1,67.3 43.4,67.3     43.6,67.3 43.9,67.2 44.1,67.1 44.2,66.9 44.3,66.8 44.4,66.6 44.4,66.5 44.5,66.3 44.5,66 44.4,65.8 44.2,65.6 44,65.4     43.7,65.2 43.3,65.1 42.9,65 42.5,64.8 42.1,64.6 41.7,64.4 41.4,64.1 41.1,63.8 40.8,63.4 40.6,63 40.5,62.4 40.6,61.8     40.6,61.4 40.7,61 40.8,60.7 40.9,60.4 41.1,60.1 41.2,59.8 41.5,59.5 41.7,59.3 42,59.1 42.3,59 42.7,58.8 43.1,58.7 43.5,58.6     44,58.5 44.6,58.5 45.2,58.5 45.6,58.5 45.9,58.5 46.2,58.5 46.5,58.5 46.7,58.5 47,58.6 47.2,58.6 47.4,58.6 47.5,58.6     47.7,58.7 47.8,58.7 47.9,58.7 48,58.7 48.1,58.7 48.2,58.7 48.3,58.8 47.8,61 47.8,61   "/><polyline class="st39" points="47.8,61 47.8,61 47.6,61 47.5,61 47.4,61 47.2,61 47.1,60.9 47,60.9 46.8,60.9 46.7,60.9     46.6,60.9 46.4,60.9 46.2,60.8 46,60.8 45.8,60.8 45.6,60.8 45.3,60.9 45,60.9 45,60.9 44.8,60.9 44.6,60.9 44.5,61 44.3,61.1     44.2,61.1 44,61.2 43.9,61.3 43.8,61.4 43.8,61.5 43.7,61.6 43.7,61.8 43.7,61.9 43.7,62 43.8,62.1 43.9,62.3 44,62.4 44,62.4     44.2,62.6 44.4,62.7 44.7,62.9 45,63 45.3,63.1 45.7,63.2 46,63.3 46.3,63.4 46.6,63.6 46.9,63.8 47.1,64.1 47.4,64.4 47.5,64.8     47.6,65.2 47.7,65.8 47.6,66.4 47.6,66.4 47.6,66.9 47.4,67.3 47.3,67.7 47.1,68 46.8,68.3 46.6,68.6 46.3,68.8 46,69 45.7,69.1     45.3,69.3 45,69.4 44.6,69.4 44.3,69.5 44,69.5 43.6,69.6 43.3,69.6 43.3,69.6 42.9,69.6 42.5,69.6 42.1,69.6 41.8,69.5     41.5,69.5 41.2,69.5 41,69.5 40.7,69.5 40.5,69.4 40.3,69.4 40.1,69.4 40,69.3 39.8,69.3 39.6,69.2 39.5,69.2 39.3,69.1     39.7,66.9 39.7,66.9 39.8,66.9 40,66.9 40.1,67 40.3,67 40.4,67 40.6,67.1 40.9,67.1 41.1,67.2 41.4,67.2 41.6,67.3 41.9,67.3     42.2,67.3 42.5,67.3 42.8,67.3 43.1,67.3 43.4,67.3 43.4,67.3 43.6,67.3 43.9,67.2 44.1,67.1 44.2,66.9 44.3,66.8 44.4,66.6     44.4,66.5 44.5,66.3 44.5,66.3 44.5,66 44.4,65.8 44.2,65.6 44,65.4 43.7,65.2 43.3,65.1 42.9,65 42.5,64.8 42.1,64.6 41.7,64.4     41.4,64.1 41.1,63.8 40.8,63.4 40.6,63 40.5,62.4 40.6,61.8 40.6,61.8 40.6,61.4 40.7,61 40.8,60.7 40.9,60.4 41.1,60.1     41.2,59.8 41.5,59.5 41.7,59.3 42,59.1 42.3,59 42.7,58.8 43.1,58.7 43.5,58.6 44,58.5 44.6,58.5 45.2,58.5 45.2,58.5 45.6,58.5     45.9,58.5 46.2,58.5 46.5,58.5 46.7,58.5 47,58.6 47.2,58.6 47.4,58.6 47.5,58.6 47.7,58.7 47.8,58.7 47.9,58.7 48,58.7     48.1,58.7 48.2,58.7 48.3,58.8 47.8,61   "/><polygon class="st38" points="50.2,56.3 53,56.3 52.6,58.7 54.2,58.7 53.9,61 52.1,60.9 51.1,66.6 51.1,66.8 51.2,66.9 51.3,67.1     51.4,67.2 51.6,67.3 51.8,67.3 52,67.4 52.2,67.4 52.5,67.4 52.7,67.3 52.9,67.3 53,67.3 53.1,67.2 53.2,67.2 53.3,67.2     53.3,67.2 53,69.1 52.9,69.1 52.8,69.1 52.8,69.2 52.7,69.2 52.6,69.3 52.5,69.3 52.4,69.3 52.3,69.3 52.2,69.4 52.1,69.4     52,69.4 51.9,69.4 51.8,69.5 51.6,69.5 51.5,69.5 51.3,69.5 50.5,69.5 50.1,69.5 49.8,69.4 49.4,69.4 49.2,69.3 48.9,69.2     48.7,69.1 48.6,69 48.4,68.9 48.3,68.7 48.3,68.6 48.2,68.4 48.2,68.2 48.2,68 48.2,67.8 48.2,67.5 48.2,67.3 50.2,56.3     50.2,56.3   "/><polyline class="st39" points="50.2,56.3 53,56.3 52.6,58.7 54.2,58.7 53.9,61 52.1,60.9 51.1,66.6 51.1,66.6 51.1,66.8     51.2,66.9 51.3,67.1 51.4,67.2 51.6,67.3 51.8,67.3 52,67.4 52.2,67.4 52.2,67.4 52.5,67.4 52.7,67.3 52.9,67.3 53,67.3     53.1,67.2 53.2,67.2 53.3,67.2 53.3,67.2 53,69.1 53,69.1 52.9,69.1 52.8,69.1 52.8,69.2 52.7,69.2 52.6,69.3 52.5,69.3     52.4,69.3 52.3,69.3 52.2,69.4 52.1,69.4 52,69.4 51.9,69.4 51.8,69.5 51.6,69.5 51.5,69.5 51.3,69.5 50.5,69.5 50.5,69.5     50.1,69.5 49.8,69.4 49.4,69.4 49.2,69.3 48.9,69.2 48.7,69.1 48.6,69 48.4,68.9 48.3,68.7 48.3,68.6 48.2,68.4 48.2,68.2     48.2,68 48.2,67.8 48.2,67.5 48.2,67.3 50.2,56.3   "/><polyline class="st39" points="56.5,64.8 56.5,64.8 56.4,65 56.4,65.1 56.4,65.3 56.5,65.5 56.6,65.7 56.6,65.9 56.8,66.1     56.9,66.3 57,66.4 57.2,66.6 57.3,66.7 57.5,66.9 57.7,67 57.9,67.1 58.1,67.1 58.3,67.2 58.3,67.2 58.6,67.2 58.8,67.2     59.1,67.3 59.3,67.3 59.6,67.3 59.9,67.3 60.1,67.3 60.4,67.3 60.7,67.2 61,67.2 61.2,67.1 61.5,67 61.8,66.9 62.1,66.8     62.4,66.6 62.7,66.5 62.3,69 62.3,69 62.1,69 61.9,69.1 61.8,69.2 61.6,69.2 61.5,69.3 61.3,69.3 61.1,69.4 61,69.4 60.8,69.4     60.6,69.5 60.4,69.5 60.1,69.5 59.9,69.5 59.6,69.5 59.3,69.5 59,69.5 59,69.5 58.5,69.5 58,69.5 57.5,69.4 57,69.3 56.5,69.1     56,68.9 55.5,68.7 55.1,68.4 54.7,68 54.4,67.6 54.1,67.2 53.8,66.6 53.7,66 53.6,65.3 53.5,64.6 53.6,63.8 53.6,63.8 53.6,63.4     53.7,63.1 53.8,62.7 53.9,62.3 54,61.8 54.2,61.4 54.4,60.9 54.7,60.5 55,60.1 55.4,59.7 55.9,59.4 56.4,59.1 57,58.8 57.6,58.7     58.3,58.5 59.2,58.5 59.2,58.5 59.6,58.5 60,58.5 60.4,58.6 60.8,58.7 61.2,58.9 61.6,59 62,59.3 62.3,59.6 62.6,59.9 62.8,60.3     63,60.8 63.2,61.3 63.3,61.9 63.3,62.6 63.2,63.4 63.1,64.2 63,64.8 55.7,64.8 56.1,62.9 60.5,62.9 60.5,62.9 60.6,62.6     60.5,62.4 60.5,62.1 60.5,61.9 60.4,61.7 60.3,61.6 60.2,61.4 60.1,61.3 60,61.2 59.9,61.1 59.7,61 59.6,60.9 59.4,60.8     59.3,60.8 59.1,60.8 58.9,60.7 58.9,60.7 58.7,60.7 58.5,60.8 58.4,60.8 58.2,60.9 58,61 57.9,61 57.7,61.2 57.6,61.3 57.5,61.4     57.3,61.6 57.2,61.7 57.1,61.9 57,62.1 57,62.3 56.9,62.5 56.9,62.7 56.5,64.8   "/><polygon class="st38" points="80.5,59.3 80.4,59.2 80.3,59.2 80.1,59.1 80,59 79.8,59 79.7,58.9 79.5,58.9 79.3,58.8 79.1,58.7     78.9,58.7 78.7,58.7 78.5,58.6 78.3,58.6 78,58.6 77.8,58.6 77.5,58.6 77.3,58.6 77,58.6 76.8,58.6 76.5,58.7 76.2,58.8     75.9,58.9 75.6,59 75.3,59.2 75.1,59.4 74.8,59.7 74.6,60 74.3,60.4 74.1,60.8 73.9,61.3 73.7,61.9 73.5,62.6 73.5,62.9     73.4,63.3 73.4,63.6 73.4,64 73.4,64.3 73.5,64.6 73.6,64.9 73.7,65.2 73.9,65.5 74.1,65.8 74.3,66 74.5,66.2 74.8,66.4     75.1,66.5 75.4,66.7 75.8,66.8 76,66.8 76.1,66.8 76.3,66.9 76.5,66.9 76.7,66.9 76.9,66.9 77.2,66.9 77.4,66.9 77.7,66.8     78,66.8 78.2,66.7 78.5,66.6 78.7,66.5 79,66.4 79.2,66.2 79.4,66.1 78.9,68.8 78.9,68.8 78.8,68.9 78.7,68.9 78.6,69 78.5,69.1     78.4,69.1 78.2,69.2 78,69.3 77.8,69.3 77.5,69.4 77.2,69.4 76.9,69.5 76.5,69.5 76,69.5 75.5,69.5 75,69.5 74.5,69.4 74,69.3     73.6,69.2 73.1,69 72.6,68.7 72.2,68.4 71.8,68.1 71.4,67.7 71.1,67.2 70.8,66.7 70.6,66.1 70.4,65.5 70.3,64.8 70.2,64.1     70.3,63.3 70.4,62.5 70.5,62.1 70.5,61.7 70.7,61.3 70.8,60.9 70.9,60.6 71,60.2 71.1,59.9 71.3,59.6 71.4,59.3 71.6,59     71.7,58.7 71.9,58.4 72.1,58.2 72.3,57.9 72.5,57.7 72.7,57.5 73,57.3 73.2,57.1 73.4,56.9 73.7,56.8 74,56.6 74.2,56.5     74.5,56.4 74.8,56.2 75.1,56.1 75.4,56.1 75.7,56 76.1,55.9 76.4,55.9 76.8,55.8 77.2,55.8 77.5,55.8 77.9,55.8 78.2,55.8     78.5,55.9 78.8,55.9 79.1,55.9 79.3,56 79.6,56.1 79.8,56.1 80.1,56.2 80.3,56.2 80.5,56.3 80.6,56.4 80.8,56.4 80.9,56.5     81,56.5 81.1,56.5 80.5,59.3 80.5,59.3   "/><polyline class="st39" points="80.5,59.3 80.5,59.3 80.4,59.2 80.3,59.2 80.1,59.1 80,59 79.8,59 79.7,58.9 79.5,58.9 79.3,58.8     79.1,58.7 78.9,58.7 78.7,58.7 78.5,58.6 78.3,58.6 78,58.6 77.8,58.6 77.5,58.6 77.5,58.6 77.3,58.6 77,58.6 76.8,58.6     76.5,58.7 76.2,58.8 75.9,58.9 75.6,59 75.3,59.2 75.1,59.4 74.8,59.7 74.6,60 74.3,60.4 74.1,60.8 73.9,61.3 73.7,61.9     73.5,62.6 73.5,62.6 73.5,62.9 73.4,63.3 73.4,63.6 73.4,64 73.4,64.3 73.5,64.6 73.6,64.9 73.7,65.2 73.9,65.5 74.1,65.8     74.3,66 74.5,66.2 74.8,66.4 75.1,66.5 75.4,66.7 75.8,66.8 75.8,66.8 76,66.8 76.1,66.8 76.3,66.9 76.5,66.9 76.7,66.9     76.9,66.9 77.2,66.9 77.4,66.9 77.7,66.8 78,66.8 78.2,66.7 78.5,66.6 78.7,66.5 79,66.4 79.2,66.2 79.4,66.1 78.9,68.8     78.9,68.8 78.9,68.8 78.8,68.9 78.7,68.9 78.6,69 78.5,69.1 78.4,69.1 78.2,69.2 78,69.3 77.8,69.3 77.5,69.4 77.2,69.4     76.9,69.5 76.5,69.5 76,69.5 75.5,69.5 75,69.5 75,69.5 74.5,69.4 74,69.3 73.6,69.2 73.1,69 72.6,68.7 72.2,68.4 71.8,68.1     71.4,67.7 71.1,67.2 70.8,66.7 70.6,66.1 70.4,65.5 70.3,64.8 70.2,64.1 70.3,63.3 70.4,62.5 70.4,62.5 70.5,62.1 70.5,61.7     70.7,61.3 70.8,60.9 70.9,60.6 71,60.2 71.1,59.9 71.3,59.6 71.4,59.3 71.6,59 71.7,58.7 71.9,58.4 72.1,58.2 72.3,57.9     72.5,57.7 72.7,57.5 73,57.3 73.2,57.1 73.4,56.9 73.7,56.8 74,56.6 74.2,56.5 74.5,56.4 74.8,56.2 75.1,56.1 75.4,56.1 75.7,56     76.1,55.9 76.4,55.9 76.8,55.8 77.2,55.8 77.5,55.8 77.5,55.8 77.9,55.8 78.2,55.8 78.5,55.9 78.8,55.9 79.1,55.9 79.3,56     79.6,56.1 79.8,56.1 80.1,56.2 80.3,56.2 80.5,56.3 80.6,56.4 80.8,56.4 80.9,56.5 81,56.5 81.1,56.5 80.5,59.3   "/><polygon class="st38" points="105.4,69.5 102.6,69.5 102.8,68.4 102.8,68.3 102.6,68.5 102.5,68.7 102.3,68.8 102.1,69     101.9,69.1 101.8,69.2 101.6,69.3 101.4,69.4 101.2,69.5 101,69.5 100.8,69.6 100.6,69.6 100.4,69.6 100.2,69.7 100,69.7     99.8,69.7 99.3,69.6 98.8,69.5 98.4,69.3 97.9,69.1 97.6,68.8 97.3,68.5 97,68.1 96.7,67.7 96.5,67.2 96.4,66.8 96.3,66.3     96.2,65.7 96.2,65.2 96.2,64.7 96.2,64.2 96.3,63.7 96.5,63.1 96.6,62.5 96.8,62 97.1,61.5 97.4,61.1 97.7,60.7 98,60.3 98.3,60     98.7,59.7 99,59.4 99.4,59.2 99.8,59 100.2,58.9 100.6,58.8 101,58.7 101.4,58.7 101.7,58.7 102,58.7 102.3,58.8 102.5,58.9     102.7,58.9 102.9,59 103.1,59.2 103.3,59.3 103.5,59.4 103.6,59.5 103.8,59.6 103.9,59.8 104,59.9 104.1,60 104.2,60.2     104.2,60.3 104.2,60.3 104.9,56.3 107.7,56.3 105.4,69.5 105.4,69.5   "/><polyline class="st39" points="105.4,69.5 102.6,69.5 102.8,68.4 102.8,68.3 102.8,68.3 102.6,68.5 102.5,68.7 102.3,68.8     102.1,69 101.9,69.1 101.8,69.2 101.6,69.3 101.4,69.4 101.2,69.5 101,69.5 100.8,69.6 100.6,69.6 100.4,69.6 100.2,69.7     100,69.7 99.8,69.7 99.8,69.7 99.3,69.6 98.8,69.5 98.4,69.3 97.9,69.1 97.6,68.8 97.3,68.5 97,68.1 96.7,67.7 96.5,67.2     96.4,66.8 96.3,66.3 96.2,65.7 96.2,65.2 96.2,64.7 96.2,64.2 96.3,63.7 96.3,63.7 96.5,63.1 96.6,62.5 96.8,62 97.1,61.5     97.4,61.1 97.7,60.7 98,60.3 98.3,60 98.7,59.7 99,59.4 99.4,59.2 99.8,59 100.2,58.9 100.6,58.8 101,58.7 101.4,58.7 101.4,58.7     101.7,58.7 102,58.7 102.3,58.8 102.5,58.9 102.7,58.9 102.9,59 103.1,59.2 103.3,59.3 103.5,59.4 103.6,59.5 103.8,59.6     103.9,59.8 104,59.9 104.1,60 104.2,60.2 104.2,60.3 104.2,60.3 104.9,56.3 107.7,56.3 105.4,69.5   "/><polygon class="st36" points="100.8,67.1 101.1,67.1 101.4,67 101.6,66.9 101.8,66.8 102.1,66.7 102.3,66.5 102.5,66.4     102.6,66.2 102.8,66 102.9,65.8 103,65.5 103.2,65.3 103.3,65 103.3,64.8 103.4,64.5 103.5,64.2 103.5,63.9 103.5,63.7     103.5,63.4 103.5,63.1 103.5,62.8 103.5,62.6 103.4,62.3 103.3,62.1 103.2,61.9 103.1,61.7 103,61.6 102.8,61.4 102.6,61.3     102.5,61.2 102.3,61.2 102,61.1 101.8,61.2 101.5,61.2 101.3,61.3 101.1,61.4 100.9,61.5 100.7,61.7 100.5,61.8 100.3,62     100.2,62.3 100,62.5 99.9,62.7 99.8,63 99.7,63.3 99.6,63.5 99.5,63.8 99.5,64.1 99.4,64.6 99.4,65.1 99.5,65.5 99.6,66     99.8,66.4 100.1,66.8 100.4,67 100.8,67.1 100.8,67.1   "/><polygon class="st38" points="38.8,67.3 38.4,69.5 35.9,69.5 36,69.1 36,68.7 36,68.4 36.1,68.3 35.9,68.5 35.8,68.6 35.6,68.8     35.4,68.9 35.1,69.1 34.9,69.2 34.6,69.3 34.3,69.4 34.1,69.5 33.8,69.6 33.5,69.6 33.2,69.7 32.9,69.7 32.6,69.7 32.3,69.7     32,69.6 31.7,69.5 31.4,69.4 31.1,69.3 30.8,69.1 30.6,69 30.4,68.8 30.2,68.6 30.1,68.4 30,68.2 29.9,68 29.8,67.8 29.7,67.5     29.7,67.3 29.7,67.1 29.6,66.8 29.6,66.6 29.7,66.2 29.7,65.9 29.8,65.5 30,65.2 30.1,64.8 30.3,64.5 30.5,64.3 30.8,64 31,63.8     31.3,63.6 31.6,63.4 31.9,63.2 32.2,63.1 32.5,63 32.9,62.9 33.2,62.8 33.3,62.8 33.3,62.8 33.4,62.8 33.5,62.8 33.6,62.8     33.8,62.7 33.9,62.7 34.1,62.7 34.2,62.7 34.4,62.7 34.6,62.7 34.8,62.6 34.9,62.6 35.1,62.6 35.2,62.6 35.3,62.6 35.6,62.6     35.8,62.6 36,62.6 36.2,62.6 36.4,62.6 36.6,62.6 36.7,62.7 36.7,62.7 36.7,62.6 36.8,62.4 36.8,62.2 36.9,62 36.8,61.8     36.7,61.6 36.6,61.4 36.4,61.2 36.2,61.1 36,61 35.8,61 35.5,60.9 35.2,60.9 34.9,60.9 34.6,60.9 34.3,60.9 34,60.9 33.7,61     33.3,61 33,61 32.7,61.1 32.4,61.1 32.2,61.2 31.9,61.2 31.7,61.3 31.5,61.4 31.4,61.4 31.3,61.5 32,59.1 32.2,59 32.4,58.9     32.7,58.8 32.9,58.8 33.1,58.7 33.4,58.7 33.7,58.6 33.9,58.6 34.2,58.6 34.5,58.6 34.8,58.6 35.1,58.6 35.5,58.6 35.8,58.6     36.1,58.6 36.5,58.6 36.8,58.6 37.1,58.7 37.4,58.7 37.7,58.8 38,58.9 38.3,59.1 38.6,59.3 38.9,59.5 39.2,59.7 39.4,59.9     39.6,60.2 39.7,60.5 39.9,60.8 39.9,61.2 39.9,61.5 39.9,61.9 38.8,67.3 38.8,67.3   "/><polyline class="st39" points="38.8,67.3 38.4,69.5 35.9,69.5 35.9,69.5 36,69.1 36,68.7 36,68.4 36.1,68.3 36.1,68.3 35.9,68.5     35.8,68.6 35.6,68.8 35.4,68.9 35.1,69.1 34.9,69.2 34.6,69.3 34.3,69.4 34.1,69.5 33.8,69.6 33.5,69.6 33.2,69.7 32.9,69.7     32.6,69.7 32.3,69.7 32,69.6 32,69.6 31.7,69.5 31.4,69.4 31.1,69.3 30.8,69.1 30.6,69 30.4,68.8 30.2,68.6 30.1,68.4 30,68.2     29.9,68 29.8,67.8 29.7,67.5 29.7,67.3 29.7,67.1 29.6,66.8 29.6,66.6 29.6,66.6 29.7,66.2 29.7,65.9 29.8,65.5 30,65.2     30.1,64.8 30.3,64.5 30.5,64.3 30.8,64 31,63.8 31.3,63.6 31.6,63.4 31.9,63.2 32.2,63.1 32.5,63 32.9,62.9 33.2,62.8 33.2,62.8     33.3,62.8 33.3,62.8 33.4,62.8 33.5,62.8 33.6,62.8 33.8,62.7 33.9,62.7 34.1,62.7 34.2,62.7 34.4,62.7 34.6,62.7 34.8,62.6     34.9,62.6 35.1,62.6 35.2,62.6 35.3,62.6 35.3,62.6 35.6,62.6 35.8,62.6 36,62.6 36.2,62.6 36.4,62.6 36.6,62.6 36.7,62.7     36.7,62.7 36.7,62.7 36.7,62.6 36.8,62.4 36.8,62.2 36.9,62 36.9,62 36.8,61.8 36.7,61.6 36.6,61.4 36.4,61.2 36.2,61.1 36,61     35.8,61 35.5,60.9 35.5,60.9 35.2,60.9 34.9,60.9 34.6,60.9 34.3,60.9 34,60.9 33.7,61 33.3,61 33,61 32.7,61.1 32.4,61.1     32.2,61.2 31.9,61.2 31.7,61.3 31.5,61.4 31.4,61.4 31.3,61.5 32,59.1 32,59.1 32.2,59 32.4,58.9 32.7,58.8 32.9,58.8 33.1,58.7     33.4,58.7 33.7,58.6 33.9,58.6 34.2,58.6 34.5,58.6 34.8,58.6 35.1,58.6 35.5,58.6 35.8,58.6 36.1,58.6 36.5,58.6 36.5,58.6     36.8,58.6 37.1,58.7 37.4,58.7 37.7,58.8 38,58.9 38.3,59.1 38.6,59.3 38.9,59.5 39.2,59.7 39.4,59.9 39.6,60.2 39.7,60.5     39.9,60.8 39.9,61.2 39.9,61.5 39.9,61.9 38.8,67.3   "/><polygon class="st37" points="36.4,64.6 36.4,64.6 36.3,64.5 36.3,64.5 36.2,64.5 36.1,64.5 35.9,64.5 35.8,64.5 35.6,64.5     35.5,64.5 35.3,64.5 35.1,64.5 35,64.5 34.8,64.6 34.7,64.6 34.6,64.6 34.5,64.6 34.4,64.7 34.3,64.7 34.2,64.7 34.1,64.8     34,64.8 33.8,64.9 33.7,65 33.6,65.1 33.4,65.2 33.3,65.3 33.2,65.4 33,65.5 32.9,65.6 32.9,65.8 32.8,65.9 32.8,66.1 32.8,66.4     32.8,66.7 32.9,66.9 33.1,67.1 33.2,67.2 33.4,67.2 33.5,67.3 33.7,67.3 34,67.3 34.3,67.2 34.5,67.2 34.8,67.1 35,67.1 35.2,67     35.3,66.9 35.5,66.8 35.6,66.7 35.7,66.5 35.8,66.4 35.9,66.3 36,66.2 36.1,66.1 36.1,66 36.1,65.9 36.2,65.6 36.3,65.2     36.3,64.9 36.4,64.6 36.4,64.6   "/><polygon class="st38" points="17.6,69.5 14.8,69.5 17.1,56.3 21.9,56.3 22.4,64.1 25.7,56.3 30.7,56.3 28.3,69.5 25.6,69.5     27.3,59.6 27.2,59.6 23.1,69.5 20,69.5 20,69.1 19.9,68 19.8,66.4 19.7,64.6 19.6,62.8 19.5,61.3 19.4,60.1 19.4,59.6 19.4,59.6     19.3,59.6 19.3,59.6 19.3,59.6 17.6,69.5 17.6,69.5   "/><polyline class="st39" points="17.6,69.5 14.8,69.5 17.1,56.3 21.9,56.3 22.4,64.1 25.7,56.3 30.7,56.3 28.3,69.5 25.6,69.5     27.3,59.6 27.2,59.6 23.1,69.5 20,69.5 20,69.5 20,69.1 19.9,68 19.8,66.4 19.7,64.6 19.6,62.8 19.5,61.3 19.4,60.1 19.4,59.6     19.4,59.6 19.4,59.6 19.3,59.6 19.3,59.6 19.3,59.6 17.6,69.5   "/><polygon class="st38" points="88.9,67.3 88.5,69.5 86,69.5 86,69.1 86,68.7 86,68.5 86,68.3 85.9,68.5 85.8,68.6 85.6,68.8     85.4,68.9 85.2,69.1 84.9,69.2 84.7,69.3 84.4,69.4 84.1,69.5 83.9,69.6 83.6,69.6 83.3,69.7 83,69.7 82.7,69.7 82.4,69.7     82.2,69.6 81.8,69.5 81.5,69.4 81.2,69.3 80.9,69.1 80.7,69 80.5,68.8 80.4,68.6 80.2,68.4 80.1,68.2 80,68 79.9,67.8 79.9,67.5     79.8,67.3 79.8,67.1 79.8,66.8 79.8,66.6 79.8,66.2 79.9,65.9 80,65.5 80.1,65.2 80.2,64.8 80.4,64.5 80.6,64.3 80.9,64     81.1,63.8 81.4,63.6 81.7,63.4 82,63.2 82.3,63.1 82.7,63 83,62.9 83.3,62.8 83.4,62.8 83.4,62.8 83.5,62.8 83.6,62.8 83.7,62.8     83.9,62.7 84,62.7 84.2,62.7 84.3,62.7 84.5,62.7 84.7,62.7 84.9,62.6 85,62.6 85.2,62.6 85.3,62.6 85.4,62.6 85.7,62.6     85.9,62.6 86.1,62.6 86.4,62.6 86.6,62.6 86.7,62.6 86.8,62.7 86.8,62.7 86.9,62.6 86.9,62.4 86.9,62.2 86.9,62 86.9,61.8     86.8,61.6 86.7,61.4 86.5,61.2 86.4,61.1 86.1,61 85.9,61 85.7,60.9 85.4,60.9 85.1,60.9 84.8,60.9 84.5,60.9 84.1,60.9 83.8,61     83.5,61 83.2,61 82.9,61.1 82.6,61.1 82.3,61.2 82.1,61.2 81.8,61.3 81.7,61.4 81.5,61.4 81.4,61.5 82.1,59.1 82.3,59 82.6,58.9     82.8,58.8 83,58.8 83.3,58.7 83.6,58.7 83.8,58.6 84.1,58.6 84.4,58.6 84.7,58.6 85,58.6 85.3,58.6 85.6,58.6 85.9,58.6     86.2,58.6 86.6,58.6 86.9,58.6 87.2,58.7 87.5,58.7 87.8,58.8 88.1,58.9 88.4,59.1 88.7,59.3 89,59.5 89.3,59.7 89.5,59.9     89.7,60.2 89.9,60.5 90,60.8 90,61.2 90,61.5 90,61.9 88.9,67.3 88.9,67.3   "/><polygon class="st38" points="88.5,69.6 88.6,69.5 89,67.3 88.9,67.3 88.5,69.5 88.5,69.4 88.5,69.6 88.6,69.6 88.6,69.5     88.5,69.6 88.5,69.6   "/><polygon class="st38" points="85.9,69.5 86,69.6 88.5,69.6 88.5,69.4 86,69.4 86,69.5 85.9,69.5 85.9,69.6 86,69.6 85.9,69.5     85.9,69.5   "/><polygon class="st38" points="86.1,68.4 86,68.3 86,68.5 85.9,68.7 85.9,69.1 85.9,69.5 86,69.5 86.1,69.1 86.1,68.7 86.1,68.5     86.1,68.4 86,68.3 86.1,68.4 86.1,68.4   "/><polygon class="st38" points="82.2,69.7 82.2,69.7 82.4,69.7 82.7,69.7 83,69.7 83.3,69.7 83.6,69.7 83.9,69.6 84.1,69.5     84.4,69.5 84.7,69.4 84.9,69.2 85.2,69.1 85.4,69 85.6,68.8 85.8,68.7 86,68.5 86.1,68.4 86,68.3 85.9,68.5 85.7,68.6 85.5,68.7     85.3,68.9 85.1,69 84.9,69.1 84.6,69.2 84.4,69.3 84.1,69.4 83.8,69.5 83.6,69.6 83.3,69.6 83,69.6 82.7,69.6 82.4,69.6     82.2,69.6 82.2,69.6 82.2,69.7 82.2,69.7   "/><polygon class="st38" points="79.7,66.6 79.7,66.6 79.7,66.8 79.7,67.1 79.8,67.3 79.8,67.5 79.9,67.8 79.9,68 80,68.2 80.2,68.4     80.3,68.6 80.5,68.8 80.7,69 80.9,69.2 81.2,69.4 81.5,69.5 81.8,69.6 82.2,69.7 82.2,69.6 81.8,69.5 81.5,69.4 81.2,69.2     81,69.1 80.8,68.9 80.6,68.8 80.4,68.6 80.3,68.4 80.2,68.2 80.1,68 80,67.7 79.9,67.5 79.9,67.3 79.9,67.1 79.8,66.8 79.9,66.6     79.9,66.6 79.7,66.6 79.7,66.6   "/><polygon class="st38" points="83.3,62.7 83.3,62.7 83,62.8 82.6,62.9 82.3,63 82,63.1 81.7,63.3 81.4,63.5 81.1,63.7 80.8,64     80.6,64.2 80.4,64.5 80.2,64.8 80,65.1 79.9,65.5 79.8,65.8 79.7,66.2 79.7,66.6 79.9,66.6 79.9,66.2 79.9,65.9 80,65.5     80.2,65.2 80.3,64.9 80.5,64.6 80.7,64.3 80.9,64 81.2,63.8 81.5,63.6 81.7,63.4 82.1,63.3 82.4,63.1 82.7,63 83,62.9 83.3,62.9     83.3,62.9 83.3,62.7 83.3,62.7   "/><polygon class="st38" points="85.4,62.5 85.4,62.5 85.3,62.5 85.2,62.6 85,62.6 84.9,62.6 84.7,62.6 84.5,62.6 84.3,62.6     84.2,62.6 84,62.7 83.9,62.7 83.7,62.7 83.6,62.7 83.5,62.7 83.4,62.7 83.4,62.7 83.3,62.7 83.3,62.9 83.4,62.9 83.4,62.9     83.5,62.8 83.6,62.8 83.7,62.8 83.9,62.8 84,62.8 84.2,62.8 84.3,62.7 84.5,62.7 84.7,62.7 84.9,62.7 85,62.7 85.2,62.7     85.3,62.7 85.4,62.7 85.4,62.7 85.4,62.5 85.4,62.5   "/><polygon class="st38" points="86.8,62.6 86.8,62.6 86.8,62.6 86.7,62.6 86.6,62.6 86.4,62.6 86.1,62.6 85.9,62.6 85.7,62.5     85.4,62.5 85.4,62.7 85.7,62.7 85.9,62.7 86.1,62.7 86.4,62.7 86.6,62.7 86.7,62.7 86.8,62.7 86.8,62.7 86.9,62.7 86.8,62.7     86.9,62.7 86.9,62.7 86.8,62.6 86.8,62.6   "/><polygon class="st38" points="86.9,62 86.9,62 86.9,62.2 86.8,62.4 86.8,62.6 86.8,62.6 86.9,62.7 86.9,62.6 87,62.4 87,62.2     87,62 87,62 86.9,62 86.9,62   "/><polygon class="st38" points="85.7,61 85.7,61 85.9,61 86.1,61.1 86.3,61.2 86.5,61.3 86.6,61.4 86.8,61.6 86.8,61.8 86.9,62     87,62 87,61.8 86.9,61.5 86.7,61.4 86.6,61.2 86.4,61 86.2,61 85.9,60.9 85.7,60.9 85.7,60.9 85.7,61 85.7,61   "/><polygon class="st38" points="81.4,61.5 81.5,61.5 81.6,61.5 81.7,61.4 81.9,61.4 82.1,61.3 82.3,61.3 82.6,61.2 82.9,61.1     83.2,61.1 83.5,61.1 83.8,61 84.1,61 84.5,61 84.8,61 85.1,61 85.4,61 85.7,61 85.7,60.9 85.4,60.9 85.1,60.8 84.8,60.8     84.5,60.9 84.1,60.9 83.8,60.9 83.5,60.9 83.2,61 82.9,61 82.6,61.1 82.3,61.1 82.1,61.2 81.8,61.2 81.6,61.3 81.5,61.4     81.4,61.4 81.5,61.5 81.4,61.5 81.4,61.5   "/><polygon class="st38" points="82.1,59 82.1,59 81.4,61.5 81.5,61.5 82.2,59.1 82.1,59.1 82.1,59 82.1,59 82.1,59 82.1,59 82.1,59       "/><polygon class="st38" points="86.6,58.5 86.6,58.5 86.2,58.5 85.9,58.5 85.6,58.5 85.3,58.5 85,58.5 84.7,58.5 84.4,58.5     84.1,58.6 83.8,58.6 83.5,58.6 83.3,58.7 83,58.7 82.8,58.8 82.6,58.8 82.3,58.9 82.1,59 82.1,59.1 82.4,59 82.6,58.9 82.8,58.9     83.1,58.8 83.3,58.8 83.6,58.7 83.8,58.7 84.1,58.7 84.4,58.7 84.7,58.6 85,58.6 85.3,58.6 85.6,58.6 85.9,58.6 86.2,58.7     86.6,58.7 86.6,58.7 86.6,58.5 86.6,58.5   "/><polygon class="st38" points="90.1,62 90.1,62 90.1,61.5 90.1,61.2 90,60.8 89.9,60.5 89.8,60.2 89.6,59.9 89.3,59.6 89.1,59.4     88.8,59.2 88.5,59 88.1,58.9 87.8,58.8 87.5,58.7 87.2,58.6 86.9,58.6 86.6,58.5 86.6,58.7 86.9,58.7 87.2,58.7 87.5,58.8     87.8,58.9 88.1,59 88.4,59.2 88.7,59.3 89,59.5 89.2,59.7 89.5,60 89.7,60.2 89.8,60.5 89.9,60.8 90,61.2 90,61.5 89.9,61.9     89.9,61.9 90.1,62 90.1,62   "/><polygon class="st38" points="89,67.3 89,67.3 90.1,62 89.9,61.9 88.9,67.3 88.9,67.3 89,67.3 89,67.3   "/><polygon class="st36" points="86.5,64.6 86.5,64.6 86.4,64.5 86.4,64.5 86.3,64.5 86.1,64.5 86,64.4 85.9,64.4 85.7,64.5     85.6,64.5 85.4,64.5 85.2,64.5 85.1,64.5 84.9,64.6 84.8,64.6 84.7,64.6 84.6,64.6 84.5,64.7 84.4,64.7 84.3,64.7 84.2,64.8     84.1,64.8 83.9,64.9 83.8,64.9 83.7,65 83.5,65.1 83.4,65.2 83.3,65.3 83.2,65.5 83.1,65.6 83,65.8 83,65.9 82.9,66.1 82.9,66.4     83,66.7 83.1,66.9 83.2,67.1 83.3,67.2 83.5,67.2 83.7,67.3 83.8,67.3 84.1,67.3 84.4,67.2 84.7,67.2 84.9,67.1 85.1,67     85.3,66.9 85.5,66.8 85.7,66.7 85.8,66.6 85.9,66.5 86.1,66.4 86.1,66.2 86.2,66.1 86.3,66 86.3,65.9 86.3,65.8 86.4,65.5     86.4,65.2 86.5,64.9 86.5,64.6 86.5,64.6   "/><polygon class="st38" points="107.3,68.1 107.3,67.9 107.4,67.6 107.5,67.4 107.7,67.2 107.9,67 108.2,66.9 108.4,66.8     108.7,66.8 109,66.8 109.2,66.9 109.5,67 109.7,67.2 109.9,67.4 110,67.6 110.1,67.9 110.1,68.1 109.8,68.1 109.8,68 109.7,67.7     109.6,67.5 109.5,67.4 109.3,67.2 109.2,67.1 108.9,67 108.7,67 108.5,67 108.2,67.1 108.1,67.2 107.9,67.4 107.8,67.5     107.7,67.7 107.6,68 107.6,68.1 107.3,68.1 107.3,68.1   "/><polygon class="st38" points="108.2,68.1 108.2,67.5 108.7,67.5 108.9,67.5 109,67.6 109.1,67.6 109.1,67.6 109.2,67.7     109.2,67.8 109.2,67.8 109.3,67.9 109.2,68 109.2,68.1 109.2,68.1 109.2,68.1 108.7,68.1 108.8,68.1 108.9,68.1 108.9,68.1     109,68.1 109,68 109,68 109.1,68 109.1,67.9 109,67.8 109,67.8 109,67.8 109,67.8 108.9,67.8 108.9,67.7 108.8,67.7 108.7,67.7     108.4,67.7 108.4,68.1 108.2,68.1 108.2,68.1   "/><polygon class="st38" points="107.3,68.1 107.3,68.2 107.3,68.5 107.4,68.8 107.5,69 107.7,69.2 107.9,69.4 108.2,69.5     108.4,69.6 108.7,69.6 109,69.6 109.2,69.5 109.5,69.4 109.7,69.2 109.9,69 110,68.8 110.1,68.5 110.1,68.2 110.1,68.1     109.8,68.1 109.8,68.2 109.8,68.4 109.7,68.7 109.6,68.9 109.5,69 109.3,69.2 109.2,69.3 108.9,69.3 108.7,69.4 108.5,69.3     108.2,69.3 108.1,69.2 107.9,69 107.8,68.9 107.7,68.7 107.6,68.4 107.6,68.2 107.6,68.1 107.3,68.1 107.3,68.1   "/><polygon class="st38" points="108.2,68.1 108.2,68.8 108.4,68.8 108.4,68.2 108.7,68.2 109,68.8 109.2,68.8 108.9,68.2 109,68.2     109,68.2 109.1,68.2 109.2,68.2 109.2,68.1 108.7,68.1 108.7,68.1 108.4,68.1 108.4,68.1 108.2,68.1 108.2,68.1   "/><path class="st39" d="M107.3,68.2L107.3,68.2l0-0.3l0.1-0.3l0.1-0.2l0.2-0.2l0.2-0.2l0.2-0.1l0.3-0.1l0.3,0l0,0l0.3,0l0.3,0.1    l0.2,0.1l0.2,0.2l0.2,0.2l0.1,0.2l0.1,0.3l0,0.3l0,0l0,0.3l-0.1,0.3l-0.1,0.2l-0.2,0.2l-0.2,0.2l-0.2,0.1l-0.3,0.1l-0.3,0l0,0    l-0.3,0l-0.3-0.1l-0.2-0.1l-0.2-0.2l-0.2-0.2l-0.1-0.2l-0.1-0.3L107.3,68.2 M108.4,68.8h-0.3v-1.2h0.6l0,0l0.1,0l0.1,0l0.1,0    l0.1,0l0.1,0.1l0,0.1l0,0.1l0,0.1l0,0l0,0.1l0,0.1l0,0.1l0,0.1l-0.1,0l-0.1,0l-0.1,0h-0.1l0.3,0.5H109l-0.3-0.5h-0.3V68.8     M108.7,68.1L108.7,68.1L108.7,68.1l0.2,0l0.1,0l0.1,0l0,0l0,0l0,0v-0.1l0,0l0-0.1l0,0l0,0l0,0l-0.1,0l0,0h-0.1h-0.1h-0.3v0.4    H108.7 M108.7,69.4L108.7,69.4l0.2,0l0.2-0.1l0.2-0.1l0.2-0.1l0.1-0.2l0.1-0.2l0.1-0.2l0-0.2l0,0l0-0.2l-0.1-0.2l-0.1-0.2    l-0.1-0.2l-0.2-0.1l-0.2-0.1l-0.2-0.1l-0.2,0l0,0l-0.2,0l-0.2,0.1l-0.2,0.1l-0.2,0.1l-0.1,0.2l-0.1,0.2l-0.1,0.2l0,0.2l0,0l0,0.2    l0.1,0.2l0.1,0.2l0.1,0.2l0.2,0.1l0.2,0.1l0.2,0.1L108.7,69.4"/><polygon class="st38" points="89.7,69.5 92.5,69.5 92.5,69.5 93.6,63.8 93.6,63.6 93.7,63.3 93.7,63.1 93.8,62.9 93.9,62.7     94,62.5 94.2,62.2 94.3,62.1 94.5,61.9 94.7,61.7 94.9,61.6 95.2,61.5 95.5,61.4 95.8,61.3 96.2,61.2 96.6,61.2 96.7,61.2     96.8,61.2 96.8,61.2 96.8,61.2 97.3,58.6 97,58.6 96.7,58.6 96.5,58.7 96.2,58.8 96,58.8 95.8,58.9 95.6,59.1 95.4,59.2     95.2,59.3 95,59.5 94.9,59.6 94.7,59.8 94.6,60 94.4,60.1 94.3,60.3 94.1,60.5 94.4,58.7 91.6,58.7 89.7,69.5 89.7,69.5     89.7,69.5   "/><polyline class="st39" points="89.7,69.5 92.5,69.5 92.5,69.5 93.6,63.8 93.6,63.8 93.6,63.6 93.7,63.3 93.7,63.1 93.8,62.9     93.9,62.7 94,62.5 94.2,62.2 94.3,62.1 94.5,61.9 94.7,61.7 94.9,61.6 95.2,61.5 95.5,61.4 95.8,61.3 96.2,61.2 96.6,61.2     96.6,61.2 96.7,61.2 96.8,61.2 96.8,61.2 96.8,61.2 97.3,58.6 97.3,58.6 97,58.6 96.7,58.6 96.5,58.7 96.2,58.8 96,58.8     95.8,58.9 95.6,59.1 95.4,59.2 95.2,59.3 95,59.5 94.9,59.6 94.7,59.8 94.6,60 94.4,60.1 94.3,60.3 94.1,60.5 94.4,58.7     91.6,58.7 89.7,69.5 89.7,69.5   "/><polygon class="st38" points="63,69.5 65.8,69.5 65.9,69.5 66.8,63.8 66.9,63.6 66.9,63.3 67,63.1 67,62.9 67.1,62.7 67.2,62.5     67.3,62.3 67.5,62.2 67.6,62 67.8,61.9 68,61.8 68.3,61.6 68.6,61.6 68.9,61.5 69.2,61.4 69.6,61.4 69.7,61.4 69.7,61.4     69.7,61.4 69.8,61.4 69.8,61.4 69.9,61.4 69.9,61.4 69.9,61.4 69.9,61.4 70,61.3 70,61.1 70.1,60.9 70.1,60.6 70.2,60.3 70.3,60     70.4,59.8 70.5,59.6 70.6,59.4 70.7,59.2 70.8,59 70.9,58.9 70.9,58.7 71,58.7 71,58.6 71,58.6 70.9,58.6 70.9,58.6 70.8,58.6     70.8,58.6 70.7,58.6 70.6,58.6 70.5,58.6 70.2,58.6 69.9,58.6 69.7,58.7 69.4,58.8 69.2,58.8 69,58.9 68.8,59 68.6,59.2     68.4,59.3 68.3,59.4 68.1,59.6 68,59.8 67.8,59.9 67.7,60.1 67.5,60.3 67.4,60.5 67.7,58.7 64.8,58.7 63,69.5 63,69.5 63,69.5       "/><polyline class="st39" points="63,69.5 65.8,69.5 65.9,69.5 66.8,63.8 66.8,63.8 66.9,63.6 66.9,63.3 67,63.1 67,62.9 67.1,62.7     67.2,62.5 67.3,62.3 67.5,62.2 67.6,62 67.8,61.9 68,61.8 68.3,61.6 68.6,61.6 68.9,61.5 69.2,61.4 69.6,61.4 69.6,61.4     69.7,61.4 69.7,61.4 69.7,61.4 69.8,61.4 69.8,61.4 69.9,61.4 69.9,61.4 69.9,61.4 69.9,61.4 69.9,61.4 70,61.3 70,61.1     70.1,60.9 70.1,60.6 70.2,60.3 70.3,60 70.4,59.8 70.4,59.8 70.5,59.6 70.6,59.4 70.7,59.2 70.8,59 70.9,58.9 70.9,58.7 71,58.7     71,58.6 71,58.6 71,58.6 70.9,58.6 70.9,58.6 70.8,58.6 70.8,58.6 70.7,58.6 70.6,58.6 70.5,58.6 70.5,58.6 70.2,58.6 69.9,58.6     69.7,58.7 69.4,58.8 69.2,58.8 69,58.9 68.8,59 68.6,59.2 68.4,59.3 68.3,59.4 68.1,59.6 68,59.8 67.8,59.9 67.7,60.1 67.5,60.3     67.4,60.5 67.7,58.7 64.8,58.7 63,69.5 63,69.5   "/><polygon class="st36" points="107.3,80.1 107.3,80.1 107.4,79.8 107.5,79.6 107.7,79.4 107.9,79.2 108.2,79.1 108.4,79 108.7,79     109,79 109.2,79.1 109.5,79.2 109.7,79.4 109.9,79.6 110,79.8 110.1,80.1 110.1,80.1 109.8,80.1 109.7,79.9 109.6,79.7     109.5,79.6 109.3,79.4 109.2,79.3 108.9,79.2 108.7,79.2 108.5,79.2 108.2,79.3 108.1,79.4 107.9,79.6 107.8,79.7 107.7,79.9     107.6,80.1 107.3,80.1 107.3,80.1   "/><polygon class="st36" points="108.2,80.1 108.2,79.8 108.7,79.8 108.9,79.8 109,79.8 109.1,79.8 109.1,79.9 109.2,79.9 109.2,80     109.2,80 109.3,80.1 109.1,80.1 109.1,80.1 109,80 109,80 109,80 109,80 108.9,79.9 108.9,79.9 108.8,79.9 108.7,79.9 108.4,79.9     108.4,80.1 108.2,80.1 108.2,80.1   "/><polygon class="st36" points="107.3,80.4 107.3,80.1 107.6,80.1 107.6,80.1 107.6,80.4 107.3,80.4 107.3,80.4   "/><polygon class="st36" points="108.2,80.4 108.2,80.1 108.4,80.1 108.4,80.3 108.7,80.3 108.8,80.3 108.9,80.3 108.9,80.3     109,80.3 109,80.2 109,80.2 109.1,80.2 109.1,80.1 109.3,80.1 109.3,80.1 109.2,80.2 109.2,80.3 109.2,80.3 109.2,80.4     108.2,80.4 108.2,80.4   "/><polygon class="st36" points="109.8,80.4 109.8,80.1 109.8,80.1 110.1,80.1 110.1,80.4 109.8,80.4 109.8,80.4   "/><polygon class="st36" points="107.3,80.4 107.3,80.4 107.3,80.7 107.4,81 107.5,81.2 107.7,81.4 107.9,81.6 108.2,81.7     108.4,81.8 108.7,81.8 109,81.8 109.2,81.7 109.5,81.6 109.7,81.4 109.9,81.2 110,81 110.1,80.7 110.1,80.4 110.1,80.4     109.8,80.4 109.8,80.4 109.8,80.6 109.7,80.9 109.6,81 109.5,81.2 109.3,81.4 109.2,81.5 108.9,81.5 108.7,81.6 108.5,81.5     108.2,81.5 108.1,81.4 107.9,81.2 107.8,81 107.7,80.9 107.6,80.6 107.6,80.4 107.6,80.4 107.3,80.4 107.3,80.4   "/><polygon class="st36" points="108.2,80.4 108.2,80.9 108.4,80.9 108.4,80.4 108.7,80.4 109,80.9 109.2,80.9 108.9,80.4 109,80.4     109,80.4 109.1,80.4 109.2,80.4 109.2,80.4 108.2,80.4 108.2,80.4   "/><path class="st38" d="M63.3,61.9l-0.1-0.6L63,60.8l-0.2-0.5l-0.3-0.4l-0.3-0.3L62,59.3L61.6,59l-0.4-0.2l-0.4-0.2l-0.4-0.1    L60,58.5l-0.4,0l-0.4,0l-0.8,0l-0.7,0.1L57,58.8l-0.6,0.3l-0.5,0.3l-0.4,0.3L55,60.1l-0.3,0.4l-0.3,0.4l-0.2,0.4L54,61.8l-0.2,0.4    l-0.1,0.4l-0.1,0.4l-0.1,0.4l0,0.3l-0.1,0.8l0,0.7l0.1,0.7l0.2,0.6l0.2,0.5l0.3,0.5l0.3,0.4l0.4,0.3l0.4,0.3l0.5,0.3l0.5,0.2    l0.5,0.2l0.5,0.1l0.5,0.1l0.5,0.1l0.5,0h0.3l0.3,0h0.3l0.3,0l0.2,0l0.2,0l0.2,0l0.2,0l0.2,0l0.2,0l0.2-0.1l0.2,0l0.2-0.1l0.2-0.1    l0.2-0.1l0.2-0.1l0.4-2.5l-0.3,0.2l-0.3,0.2l-0.3,0.1L61.5,67l-0.3,0.1L61,67.2l-0.3,0.1l-0.3,0l-0.3,0l-0.3,0h-0.3l-0.3,0l-0.3,0    l-0.3,0l-0.3,0l-0.3,0l-0.2,0l-0.2-0.1L57.7,67l-0.2-0.1l-0.2-0.1l-0.2-0.2L57,66.4l-0.1-0.2l-0.1-0.2l-0.1-0.2l-0.1-0.2l-0.1-0.2    l0-0.2l0-0.2l0-0.2l0-0.1H63l0.1-0.6l0.2-0.8l0.1-0.8L63.3,61.9z M60.5,62.9h-3.7l0,0l0,0l0-0.1l0-0.2l0.1-0.2l0.1-0.2l0.1-0.2    l0.1-0.2l0.1-0.2l0.1-0.2l0.1-0.1l0.1-0.1l0.2-0.1L58,61l0.2-0.1l0.2-0.1l0.2,0l0.2,0l0.2,0l0.2,0l0.2,0l0.2,0l0.2,0.1l0.2,0.1    l0.2,0.1l0.1,0.1l0.1,0.1l0.1,0.1l0.1,0.2l0.1,0.2l0.1,0.2l0,0.2l0,0.2l0,0.2L60.5,62.9z"/></g></g></svg>